<?xml version="1.0" encoding="UTF-8" standalone="no"?>
<svg
   xmlns:dc="http://purl.org/dc/elements/1.1/"
   xmlns:cc="http://creativecommons.org/ns#"
   xmlns:rdf="http://www.w3.org/1999/02/22-rdf-syntax-ns#"
   xmlns:svg="http://www.w3.org/2000/svg"
   xmlns="http://www.w3.org/2000/svg"
   xml:space="preserve"
   style="enable-background:new 0 0 512 512;"
   viewBox="0 0 512 512"
   y="0px"
   x="0px"
   id="Capa_1"
   version="1.1"><metadata
   id="metadata77"><rdf:RDF><cc:Work
       rdf:about=""><dc:format>image/svg+xml</dc:format><dc:type
         rdf:resource="http://purl.org/dc/dcmitype/StillImage" /></cc:Work></rdf:RDF></metadata><defs
   id="defs75" />
<path
   id="path2"
   d="M256,499.398c-58.396,0-113.296-22.74-154.587-64.032c-41.292-41.291-64.032-96.191-64.032-154.587  s22.74-113.296,64.032-154.588C142.704,84.899,197.604,62.159,256,62.159s113.296,22.74,154.587,64.032  c41.292,41.292,64.032,96.192,64.032,154.588s-22.74,113.296-64.032,154.587C369.296,476.658,314.396,499.398,256,499.398z   M256,92.159c-104.005,0-188.619,84.614-188.619,188.62c0,104.005,84.614,188.619,188.619,188.619s188.619-84.614,188.619-188.619  C444.619,176.773,360.005,92.159,256,92.159z"
   style="fill:#64E1DC;" />
<path
   id="path4"
   d="M410.587,126.191C369.296,84.899,314.396,62.159,256,62.159v30  c104.005,0,188.619,84.614,188.619,188.62c0,104.005-84.614,188.619-188.619,188.619v30c58.396,0,113.296-22.74,154.587-64.032  c41.292-41.291,64.032-96.191,64.032-154.587S451.879,167.483,410.587,126.191z"
   style="fill:#00C8C8;" />
<!-- <rect x="53.49" y="374.98" style="fill:#F2BB88;" width="48.88" height="81.3"/>
<rect x="77.927" y="374.98" style="fill:#E3A76F;" width="24.44" height="81.3"/> -->
<rect
   id="rect6"
   height="50.3"
   width="24.44"
   style="fill:#F2BB88;"
   y="374.98"
   x="53.49" />
<rect
   id="rect8"
   height="50.3"
   width="24.44"
   style="fill:#E3A76F;"
   y="374.98"
   x="77.927" />
<path
   id="path10"
   d="M123.755,351.857c0-25.31-20.518-45.828-45.828-45.828l0,0c-25.31,0-45.828,20.518-45.828,45.828  v26.497c0,25.31,20.518,45.828,45.828,45.828l0,0c25.31,0,45.828-20.518,45.828-45.828  C123.755,378.354,123.755,351.857,123.755,351.857z"
   style="fill:#F2D1A5;" />
<path
   id="path12"
   d="M77.927,306.029v118.153c25.31,0,45.828-20.518,45.828-45.828v-26.497  C123.755,326.547,103.237,306.029,77.927,306.029z"
   style="fill:#F2BB88;" />
<path
   id="path14"
   d="M53.574,424.267l-25.009,6.099C11.798,434.455,0,449.476,0,466.733V512h155.853v-45.267  c0-17.258-11.798-32.279-28.564-36.367l-25.009-6.099l-24.353,22L53.574,424.267z"
   style="fill:#4A7AFF;" />
<path
   id="path16"
   d="M77.927,512h77.927v-45.267c0-17.258-11.798-32.279-28.564-36.367l-25.009-6.099l-24.353,22V512  H77.927z"
   style="fill:#0053BF;" />
<rect
   id="rect18"
   height="50.3"
   width="24.44"
   style="fill:#FFBEAA;"
   y="374.98"
   x="409.63" />
<rect
   id="rect20"
   height="50.3"
   width="24.44"
   style="fill:#FAA68E;"
   y="374.98"
   x="434.07" />
<path
   id="path22"
   d="M479.902,351.857c0-25.31-20.518-45.828-45.828-45.828l0,0c-25.31,0-45.828,20.518-45.828,45.828  v26.497c0,25.31,20.518,45.828,45.828,45.828l0,0c25.31,0,45.828-20.518,45.828-45.828V351.857z"
   style="fill:#FFCDBE;" />
<path
   id="path24"
   d="M434.074,306.029v118.153c25.31,0,45.828-20.518,45.828-45.828v-26.497  C479.902,326.547,459.384,306.029,434.074,306.029z"
   style="fill:#FFBEAA;" />
<path
   id="path26"
   d="M409.721,424.267l-25.009,6.099c-16.766,4.089-28.564,19.11-28.564,36.367V512H512v-45.267  c0-17.258-11.798-32.279-28.564-36.367l-25.009-6.099l-24.353,22L409.721,424.267z"
   style="fill:#FE6A16;" />
<path
   id="path28"
   d="M434.073,512H512v-45.267c0-17.258-11.798-32.279-28.564-36.367l-25.009-6.099l-24.353,22V512  H434.073z"
   style="fill:#F24500;" />
<rect
   id="rect30"
   height="50.3"
   width="24.44"
   style="fill:#B27A49;"
   y="68.953"
   x="231.56" />
<rect
   id="rect32"
   height="50.3"
   width="24.44"
   style="fill:#9E6F46;"
   y="68.953"
   x="256" />
<path
   id="path34"
   d="M301.828,45.828C301.828,20.518,281.31,0,256,0l0,0c-25.31,0-45.828,20.518-45.828,45.828v26.497  c0,25.31,20.518,45.828,45.828,45.828l0,0c25.31,0,45.828-20.518,45.828-45.828V45.828z"
   style="fill:#C48958;" />
<path
   id="path36"
   d="M256,0v118.153c25.31,0,45.828-20.518,45.828-45.828V45.828C301.828,20.518,281.31,0,256,0z"
   style="fill:#B27A49;" />
<path
   id="path38"
   d="M231.647,118.238l-25.009,6.099c-16.766,4.089-28.564,19.11-28.564,36.367v45.267h155.853v-45.267  c0-17.258-11.798-32.279-28.564-36.367l-25.009-6.099l-24.353,22L231.647,118.238z"
   style="fill:#FFE733;" />
<path
   id="path40"
   d="M256,205.971h77.927v-45.267c0-17.258-11.798-32.279-28.564-36.367l-25.009-6.099l-24.353,22v65.733  H256z"
   style="fill:#E8C917;" />
<g
   id="g42">
</g>
<g
   id="g44">
</g>
<g
   id="g46">
</g>
<g
   id="g48">
</g>
<g
   id="g50">
</g>
<g
   id="g52">
</g>
<g
   id="g54">
</g>
<g
   id="g56">
</g>
<g
   id="g58">
</g>
<g
   id="g60">
</g>
<g
   id="g62">
</g>
<g
   id="g64">
</g>
<g
   id="g66">
</g>
<g
   id="g68">
</g>
<g
   id="g70">
</g>
</svg>